<?xml version="1.0" standalone="no"?>
<!DOCTYPE svg PUBLIC "-//W3C//DTD SVG 20010904//EN"
 "http://www.w3.org/TR/2001/REC-SVG-20010904/DTD/svg10.dtd">
<svg version="1.0" xmlns="http://www.w3.org/2000/svg"
 width="200.000000pt" height="200.000000pt" viewBox="0 0 200.000000 200.000000"
 preserveAspectRatio="xMidYMid meet">

<g transform="translate(0.000000,200.000000) scale(0.100000,-0.100000)"
fill="#000000" stroke="none">
<path d="M675 1350 c357 -357 651 -650 652 -650 2 0 3 186 3 414 l0 414 -245
236 -244 236 -408 0 -408 0 650 -650z m259 503 c61 -59 166 -161 234 -227
l122 -119 0 -354 c0 -194 -3 -353 -7 -353 -12 0 -1143 1139 -1143 1150 0 6
131 10 341 10 l341 0 112 -107z"/>
<path d="M900 1994 c0 -6 267 -266 378 -368 l52 -49 0 212 0 211 -215 0 c-118
0 -215 -3 -215 -6z m390 -180 l0 -146 -145 138 c-80 76 -145 142 -145 146 0 4
65 8 145 8 l145 0 0 -146z"/>
<path d="M1370 1324 l0 -665 193 -187 c105 -103 246 -240 312 -304 66 -64 121
-116 122 -114 2 1 0 437 -4 969 l-6 967 -309 0 -308 0 0 -666z m580 -42 c0
-368 3 -771 7 -895 4 -154 3 -227 -4 -227 -6 0 -100 87 -209 193 -110 106
-229 221 -266 256 l-68 64 0 639 0 638 270 0 270 0 0 -668z"/>
<path d="M10 972 l0 -962 320 0 320 0 0 648 0 647 -187 185 c-104 102 -248
243 -320 315 l-133 130 0 -963z"/>
<path d="M700 965 l0 -285 287 0 288 0 -285 285 c-157 157 -286 285 -287 285
-2 0 -3 -128 -3 -285z"/>
<path d="M707 623 c-4 -3 -7 -143 -7 -310 l0 -303 633 0 632 1 -313 309 -314
310 -312 0 c-172 0 -316 -3 -319 -7z"/>
</g>
</svg>
